<svg width="19" height="18" viewBox="0 0 19 18" fill="none" xmlns="http://www.w3.org/2000/svg">
<g id="Social icon - FB" clip-path="url(#clip0_182_13120)">
<path id="Vector" d="M18.4008 8.99922C18.4008 4.13911 14.4609 0.199219 9.60078 0.199219C4.74067 0.199219 0.800781 4.13911 0.800781 8.99922C0.800781 13.3915 4.0188 17.0321 8.22578 17.6923V11.543H5.99141V8.99922H8.22578V7.06047C8.22578 4.85497 9.53959 3.63672 11.5497 3.63672C12.5122 3.63672 13.5195 3.80859 13.5195 3.80859V5.97422H12.4099C11.3168 5.97422 10.9758 6.65261 10.9758 7.34922V8.99922H13.4164L13.0262 11.543H10.9758V17.6923C15.1828 17.0321 18.4008 13.3915 18.4008 8.99922Z" fill="white"/>
</g>
<defs>
<clipPath id="clip0_182_13120">
<rect width="17.6" height="17.6" fill="white" transform="translate(0.800781 0.199219)"/>
</clipPath>
</defs>
</svg>
