<svg width="18" height="18" viewBox="0 0 18 18" fill="none" xmlns="http://www.w3.org/2000/svg">
<path d="M9.19844 1.78391C11.5497 1.78391 11.8281 1.79422 12.7528 1.83547C13.6122 1.87328 14.0763 2.01766 14.3856 2.13797C14.7947 2.29609 15.0903 2.48859 15.3963 2.79453C15.7056 3.10391 15.8947 3.39609 16.0528 3.80516C16.1731 4.11453 16.3175 4.58203 16.3553 5.43797C16.3966 6.36609 16.4069 6.64453 16.4069 8.99234C16.4069 11.3436 16.3966 11.622 16.3553 12.5467C16.3175 13.4061 16.1731 13.8702 16.0528 14.1795C15.8947 14.5886 15.7022 14.8842 15.3963 15.1902C15.0869 15.4995 14.7947 15.6886 14.3856 15.8467C14.0763 15.967 13.6088 16.1114 12.7528 16.1492C11.8247 16.1905 11.5463 16.2008 9.19844 16.2008C6.84719 16.2008 6.56875 16.1905 5.64406 16.1492C4.78469 16.1114 4.32063 15.967 4.01125 15.8467C3.60219 15.6886 3.30656 15.4961 3.00063 15.1902C2.69125 14.8808 2.50219 14.5886 2.34406 14.1795C2.22375 13.8702 2.07938 13.4027 2.04156 12.5467C2.00031 11.6186 1.99 11.3402 1.99 8.99234C1.99 6.64109 2.00031 6.36266 2.04156 5.43797C2.07938 4.57859 2.22375 4.11453 2.34406 3.80516C2.50219 3.39609 2.69469 3.10047 3.00063 2.79453C3.31 2.48516 3.60219 2.29609 4.01125 2.13797C4.32063 2.01766 4.78813 1.87328 5.64406 1.83547C6.56875 1.79422 6.84719 1.78391 9.19844 1.78391ZM9.19844 0.199219C6.80938 0.199219 6.51031 0.209531 5.57188 0.250781C4.63688 0.292031 3.99406 0.443281 3.43719 0.659844C2.85625 0.886719 2.36469 1.18578 1.87656 1.67734C1.385 2.16547 1.08594 2.65703 0.859063 3.23453C0.6425 3.79484 0.49125 4.43422 0.45 5.36922C0.40875 6.31109 0.398438 6.61016 0.398438 8.99922C0.398438 11.3883 0.40875 11.6873 0.45 12.6258C0.49125 13.5608 0.6425 14.2036 0.859063 14.7605C1.08594 15.3414 1.385 15.833 1.87656 16.3211C2.36469 16.8092 2.85625 17.1117 3.43375 17.3352C3.99406 17.5517 4.63344 17.703 5.56844 17.7442C6.50688 17.7855 6.80594 17.7958 9.195 17.7958C11.5841 17.7958 11.8831 17.7855 12.8216 17.7442C13.7566 17.703 14.3994 17.5517 14.9563 17.3352C15.5338 17.1117 16.0253 16.8092 16.5134 16.3211C17.0016 15.833 17.3041 15.3414 17.5275 14.7639C17.7441 14.2036 17.8953 13.5642 17.9366 12.6292C17.9778 11.6908 17.9881 11.3917 17.9881 9.00266C17.9881 6.61359 17.9778 6.31453 17.9366 5.37609C17.8953 4.44109 17.7441 3.79828 17.5275 3.24141C17.3109 2.65703 17.0119 2.16547 16.5203 1.67734C16.0322 1.18922 15.5406 0.886719 14.9631 0.663281C14.4028 0.446719 13.7634 0.295469 12.8284 0.254219C11.8866 0.209531 11.5875 0.199219 9.19844 0.199219Z" fill="white"/>
<path d="M9.2 4.48047C6.70438 4.48047 4.67969 6.50516 4.67969 9.00078C4.67969 11.4964 6.70438 13.5211 9.2 13.5211C11.6956 13.5211 13.7203 11.4964 13.7203 9.00078C13.7203 6.50516 11.6956 4.48047 9.2 4.48047ZM9.2 11.933C7.58094 11.933 6.26781 10.6198 6.26781 9.00078C6.26781 7.38172 7.58094 6.06859 9.2 6.06859C10.8191 6.06859 12.1322 7.38172 12.1322 9.00078C12.1322 10.6198 10.8191 11.933 9.2 11.933Z" fill="white"/>
<path d="M14.9544 4.30141C14.9544 4.88578 14.48 5.35672 13.8991 5.35672C13.3147 5.35672 12.8438 4.88235 12.8438 4.30141C12.8438 3.71703 13.3181 3.24609 13.8991 3.24609C14.48 3.24609 14.9544 3.72047 14.9544 4.30141Z" fill="white"/>
</svg>
