<svg width="79" height="22" viewBox="0 0 79 22" fill="none" xmlns="http://www.w3.org/2000/svg">
<g id="Group 226">
<path id="Vector" d="M2.60182 16.0665C2.98833 16.9794 3.47109 17.6817 4.05011 18.1705C4.62913 18.6608 5.26679 18.9044 5.96462 18.9044C6.66245 18.9044 7.26854 18.6924 7.73025 18.2683C8.19196 17.8442 8.42206 17.3133 8.42206 16.6726C8.42206 16.1553 8.24761 15.686 7.89869 15.2664C7.54978 14.8483 6.98129 14.4212 6.19021 13.9881L5.44125 13.579C3.72676 12.6661 2.69656 12.0585 2.34765 11.7562C1.63177 11.1351 1.12645 10.5155 0.82867 9.89886C0.532394 9.28224 0.383505 8.55885 0.383505 7.73018C0.383505 5.91342 0.992601 4.42753 2.2123 3.274C3.43199 2.12048 5.02015 1.54297 6.97978 1.54297C8.35438 1.54297 9.55904 1.85579 10.5953 2.48293C11.6315 3.11007 12.4406 4.01094 13.0241 5.18853L10.8765 6.68644C10.499 5.78258 10.0223 5.1043 9.44324 4.65162C8.86422 4.19893 8.17391 3.97334 7.37382 3.97334C6.70457 3.97334 6.15262 4.18088 5.71347 4.59447C5.27582 5.00956 5.05624 5.52691 5.05624 6.14804C5.05624 6.67592 5.23672 7.13612 5.60067 7.53166C5.96312 7.92719 6.66245 8.38891 7.69867 8.91528L8.05209 9.09877C9.98315 10.0598 11.1457 10.705 11.5412 11.0343C12.2376 11.6088 12.7399 12.2134 13.0452 12.8496C13.3505 13.4858 13.5039 14.2272 13.5039 15.0739C13.5039 16.9298 12.8572 18.4412 11.5623 19.6083C10.2674 20.7769 8.58449 21.3604 6.51206 21.3604C5.03369 21.3604 3.72676 21.0355 2.59279 20.3858C1.45732 19.7361 0.594056 18.8172 0 17.6306L2.59881 16.0635L2.60182 16.0665Z" fill="white"/>
<path id="Vector_2" d="M26.1172 17.748C25.5893 18.9165 24.8794 19.8054 23.9846 20.4175C23.0897 21.0296 22.049 21.3349 20.8624 21.3349C19.0351 21.3349 17.5447 20.7183 16.3912 19.485C15.2377 18.2518 14.6602 16.6501 14.6602 14.683C14.6602 12.7158 15.2557 11.0886 16.4468 9.83126C17.638 8.57397 19.1464 7.94531 20.9737 7.94531C22.2355 7.94531 23.2898 8.21603 24.138 8.75744C24.9862 9.29886 25.5983 10.0975 25.9743 11.1517L24.2087 12.1684C24.0117 11.3863 23.7124 10.8013 23.3123 10.4103C22.9123 10.0192 22.4205 9.82373 21.837 9.82373C20.9617 9.82373 20.2909 10.2313 19.8247 11.0464C19.3585 11.8616 19.1254 13.0452 19.1254 14.5987C19.1254 16.2651 19.3224 17.4788 19.7179 18.2353C20.1134 18.9933 20.7436 19.3723 21.6114 19.3723C22.252 19.3723 22.8356 19.1421 23.3635 18.6804C23.8913 18.2187 24.2718 17.5976 24.508 16.8156L26.1187 17.748H26.1172Z" fill="white"/>
<path id="Vector_3" d="M27.9375 20.8686V0.640625H32.0192V12.6481H35.0286V8.33929H39.1103V20.8686H35.0286V14.6814H32.0192V20.8686H27.9375Z" fill="white"/>
<path id="Vector_4" d="M44.7731 20.8677C43.8031 20.8677 43.1188 20.6541 42.7173 20.2255C42.3172 19.7969 42.1172 19.0554 42.1172 18.0012V11.2064C42.1172 10.1521 42.3172 9.41065 42.7173 8.98203C43.1173 8.55341 43.8031 8.33984 44.7731 8.33984H50.5934V10.2183H47.4998C46.9824 10.2183 46.635 10.313 46.4621 10.501C46.2876 10.689 46.2004 11.062 46.2004 11.6169V13.6653H50.1272V15.5437H46.2004V17.6342C46.2004 18.1801 46.2846 18.5426 46.4545 18.7215C46.6245 18.9005 46.9719 18.9892 47.4998 18.9892H50.7904V20.8677H44.7731Z" fill="white"/>
<path id="Vector_5" d="M52.85 20.8677V18.9892H56.1828C56.9543 18.9892 57.4942 18.884 57.801 18.6719C58.1063 18.4599 58.2597 18.1049 58.2597 17.6056C58.2597 16.9649 57.6326 16.4566 56.3813 16.0806C56.0038 15.9678 55.7075 15.8791 55.491 15.8129C54.2577 15.4084 53.4125 14.9512 52.9553 14.4428C52.4981 13.9345 52.2695 13.2427 52.2695 12.3659C52.2695 11.0575 52.7012 10.0588 53.5614 9.37154C54.4232 8.68424 55.6729 8.33984 57.3122 8.33984H60.5758V10.2183H57.7499C57.2882 10.2183 56.9257 10.301 56.6625 10.4649C56.3993 10.6303 56.267 10.8589 56.267 11.1507C56.267 11.6681 56.8129 12.0967 57.9063 12.4366C58.1514 12.5208 58.3349 12.5825 58.4567 12.6201C59.7937 13.0532 60.6976 13.548 61.1683 14.1029C61.6391 14.6594 61.8752 15.4399 61.8752 16.4476C61.8752 17.8222 61.4451 18.9035 60.5833 19.6901C59.7215 20.4766 58.5319 20.8692 57.016 20.8692H52.8485L52.85 20.8677Z" fill="white"/>
<path id="Vector_6" d="M65.7832 20.8692V10.4875H62.4219V8.33984H73.2277V10.4875H69.8664V20.8692H65.7847H65.7832Z" fill="white"/>
<path id="Vector_7" d="M74.7812 20.8692V8.33984H78.8629V20.8692H74.7812Z" fill="white"/>
<path id="Vector_8" d="M74.7202 4.30387C74.7202 3.71132 74.9293 3.20449 75.3489 2.7849C75.7685 2.3653 76.2693 2.15625 76.8528 2.15625C77.4364 2.15625 77.9642 2.36379 78.3778 2.77738C78.7914 3.19247 78.999 3.70079 78.999 4.30237C78.999 4.90394 78.7899 5.40025 78.3703 5.81383C77.9507 6.22892 77.4454 6.43496 76.8513 6.43496C76.2573 6.43496 75.7655 6.2259 75.3474 5.80631C74.9278 5.38671 74.7188 4.88589 74.7188 4.30237L74.7202 4.30387Z" fill="#EF9F28"/>
</g>
</svg>
