<svg width="18" height="18" viewBox="0 0 18 18" fill="none" xmlns="http://www.w3.org/2000/svg">
<g clip-path="url(#clip0_182_13119)">
<path d="M5.736 16.1482C12.3759 16.1482 16.0086 10.6458 16.0086 5.87556C16.0086 5.72087 16.0052 5.56275 15.9983 5.40806C16.705 4.897 17.3148 4.26398 17.7992 3.53875C17.1411 3.83157 16.4423 4.02281 15.7268 4.10593C16.4802 3.65433 17.0443 2.94487 17.3145 2.10909C16.6058 2.52914 15.8306 2.82544 15.0224 2.98531C14.4778 2.40667 13.7578 2.02355 12.9737 1.89516C12.1895 1.76678 11.3849 1.9003 10.6842 2.27506C9.98357 2.64983 9.42587 3.24498 9.09737 3.96849C8.76888 4.692 8.68787 5.50358 8.86687 6.27775C7.43171 6.20573 6.02771 5.83291 4.74587 5.18347C3.46404 4.53402 2.33299 3.62245 1.42606 2.50784C0.965112 3.30257 0.82406 4.243 1.03157 5.13799C1.23909 6.03299 1.7796 6.81539 2.54325 7.32618C1.96995 7.30798 1.4092 7.15363 0.907344 6.87587V6.92056C0.90683 7.75457 1.19516 8.56302 1.72331 9.20849C2.25147 9.85396 2.98686 10.2966 3.80447 10.4612C3.27339 10.6065 2.71601 10.6277 2.17544 10.5231C2.40615 11.2403 2.85504 11.8676 3.45945 12.3175C4.06386 12.7674 4.79364 13.0173 5.54694 13.0324C4.26806 14.037 2.68828 14.5819 1.06203 14.5793C0.773629 14.5789 0.485511 14.5612 0.199219 14.5264C1.85131 15.5863 3.77314 16.1492 5.736 16.1482Z" fill="white"/>
</g>
<defs>
<clipPath id="clip0_182_13119">
<rect width="17.6" height="17.6" fill="white" transform="translate(0.199219 0.199219)"/>
</clipPath>
</defs>
</svg>
