<svg width="18" height="16" viewBox="0 0 18 16" fill="none" xmlns="http://www.w3.org/2000/svg">
<path fill-rule="evenodd" clip-rule="evenodd" d="M7.33286 1.83366C7.11185 1.83366 6.89989 1.92146 6.74361 2.07774C6.58733 2.23402 6.49953 2.44598 6.49953 2.66699V3.50033H11.4995V2.66699C11.4995 2.44598 11.4117 2.23402 11.2555 2.07774C11.0992 1.92146 10.8872 1.83366 10.6662 1.83366H7.33286ZM13.1662 3.50033V2.66699C13.1662 2.00395 12.9028 1.36807 12.434 0.899225C11.9651 0.430384 11.3292 0.166992 10.6662 0.166992H7.33286C6.66982 0.166992 6.03394 0.430384 5.5651 0.899225C5.09626 1.36807 4.83286 2.00395 4.83286 2.66699V3.50033H3.1662C1.78548 3.50033 0.666196 4.61961 0.666196 6.00033V9.31569C0.665955 9.32725 0.665956 9.33879 0.666196 9.35032V13.5003C0.666196 14.881 1.78548 16.0003 3.1662 16.0003H14.8329C16.2136 16.0003 17.3329 14.881 17.3329 13.5003V9.3503C17.3331 9.33879 17.3331 9.32725 17.3329 9.31571V6.00033C17.3329 4.61961 16.2136 3.50033 14.8329 3.50033H13.1662ZM3.1662 5.16699C2.70596 5.16699 2.33286 5.54009 2.33286 6.00033V8.81126C4.41974 9.78001 6.69469 10.2832 8.99953 10.2832C11.3044 10.2832 13.5793 9.78001 15.6662 8.81126V6.00033C15.6662 5.54009 15.2931 5.16699 14.8329 5.16699H3.1662ZM15.6662 10.6303C13.5555 11.4999 11.2909 11.9498 8.99953 11.9498C6.70817 11.9498 4.44354 11.4999 2.33286 10.6303V13.5003C2.33286 13.9606 2.70596 14.3337 3.1662 14.3337H14.8329C15.2931 14.3337 15.6662 13.9606 15.6662 13.5003V10.6303ZM8.99953 7.66699C9.45977 7.66699 9.83286 8.04009 9.83286 8.50033V8.50866C9.83286 8.9689 9.45977 9.34199 8.99953 9.34199C8.53929 9.34199 8.1662 8.9689 8.1662 8.50866V8.50033C8.1662 8.04009 8.53929 7.66699 8.99953 7.66699Z" fill="white"/>
</svg>
