<svg width="20" height="21" viewBox="0 0 20 21" fill="none" xmlns="http://www.w3.org/2000/svg">
<path fill-rule="evenodd" clip-rule="evenodd" d="M8.33335 3.83366C8.11234 3.83366 7.90038 3.92146 7.7441 4.07774C7.58781 4.23402 7.50002 4.44598 7.50002 4.66699V5.50033H12.5V4.66699C12.5 4.44598 12.4122 4.23402 12.2559 4.07774C12.0997 3.92146 11.8877 3.83366 11.6667 3.83366H8.33335ZM14.1667 5.50033V4.66699C14.1667 4.00395 13.9033 3.36807 13.4345 2.89923C12.9656 2.43038 12.3297 2.16699 11.6667 2.16699H8.33335C7.67031 2.16699 7.03442 2.43038 6.56558 2.89923C6.09674 3.36807 5.83335 4.00395 5.83335 4.66699V5.50033H4.16668C2.78597 5.50033 1.66668 6.61961 1.66668 8.00033V11.3157C1.66644 11.3272 1.66644 11.3388 1.66668 11.3503V15.5003C1.66668 16.881 2.78597 18.0003 4.16668 18.0003H15.8334C17.2141 18.0003 18.3334 16.881 18.3334 15.5003V11.3503C18.3336 11.3388 18.3336 11.3273 18.3334 11.3157V8.00033C18.3334 6.61961 17.2141 5.50033 15.8334 5.50033H14.1667ZM4.16668 7.16699C3.70645 7.16699 3.33335 7.54009 3.33335 8.00033V10.8113C5.42022 11.78 7.69518 12.2832 10 12.2832C12.3049 12.2832 14.5798 11.78 16.6667 10.8113V8.00033C16.6667 7.54009 16.2936 7.16699 15.8334 7.16699H4.16668ZM16.6667 12.6303C14.556 13.4999 12.2914 13.9498 10 13.9498C7.70866 13.9498 5.44402 13.4999 3.33335 12.6303V15.5003C3.33335 15.9606 3.70645 16.3337 4.16668 16.3337H15.8334C16.2936 16.3337 16.6667 15.9606 16.6667 15.5003V12.6303ZM10 9.66699C10.4603 9.66699 10.8334 10.0401 10.8334 10.5003V10.5087C10.8334 10.9689 10.4603 11.342 10 11.342C9.53978 11.342 9.16668 10.9689 9.16668 10.5087V10.5003C9.16668 10.0401 9.53978 9.66699 10 9.66699Z" fill="#51566C"/>
</svg>
