<svg width="20" height="20" viewBox="0 0 20 20" fill="none" xmlns="http://www.w3.org/2000/svg">
<path fill-rule="evenodd" clip-rule="evenodd" d="M10.8159 3.94665C10.1954 4.31895 10.0001 4.7172 10.0001 4.99984C10.0001 5.28248 10.1954 5.68073 10.8159 6.05303C11.4198 6.41538 12.3079 6.6665 13.3334 6.6665C14.3589 6.6665 15.247 6.41538 15.8509 6.05303C16.4714 5.68073 16.6667 5.28248 16.6667 4.99984C16.6667 4.7172 16.4714 4.31895 15.8509 3.94665C15.247 3.5843 14.3589 3.33317 13.3334 3.33317C12.3079 3.33317 11.4198 3.5843 10.8159 3.94665ZM16.6667 7.50691C15.7677 8.03402 14.5896 8.33317 13.3334 8.33317C12.0773 8.33317 10.8991 8.03402 10.0001 7.50691V8.33317C10.0001 8.61582 10.1954 9.01408 10.816 9.38639C11.42 9.74874 12.3081 9.99984 13.3334 9.99984C14.3588 9.99984 15.2469 9.74874 15.8508 9.38639C16.4714 9.01408 16.6667 8.61582 16.6667 8.33317V7.50691ZM16.6667 10.8402C15.7677 11.3673 14.5895 11.6665 13.3334 11.6665C12.0774 11.6665 10.8991 11.3673 10.0001 10.8402V11.6665C10.0001 11.9492 10.1954 12.3474 10.816 12.7197C11.42 13.0821 12.3081 13.3332 13.3334 13.3332C14.3588 13.3332 15.2469 13.0821 15.8508 12.7197C16.4714 12.3474 16.6667 11.9492 16.6667 11.6665V10.8402ZM16.6667 14.1735C15.7677 14.7007 14.5895 14.9998 13.3334 14.9998C12.0774 14.9998 10.8991 14.7007 10.0001 14.1735V14.9998C10.0001 15.2825 10.1954 15.6807 10.816 16.0531C11.42 16.4154 12.3081 16.6665 13.3334 16.6665C14.3588 16.6665 15.2469 16.4154 15.8508 16.0531C16.4714 15.6807 16.6667 15.2825 16.6667 14.9998V14.1735ZM8.33342 4.99984C8.33342 3.90177 9.07086 3.05001 9.95839 2.51749C10.8625 1.97502 12.0578 1.6665 13.3334 1.6665C14.6091 1.6665 15.8043 1.97502 16.7084 2.51749C17.596 3.05001 18.3334 3.90177 18.3334 4.99984V14.9998C18.3334 16.098 17.5958 16.9498 16.7083 17.4822C15.8041 18.0247 14.6089 18.3332 13.3334 18.3332C12.0579 18.3332 10.8627 18.0247 9.95855 17.4822C9.071 16.9498 8.33342 16.098 8.33342 14.9998V4.99984ZM4.16675 5.83317C4.62699 5.83317 5.00008 6.20627 5.00008 6.6665H5.83342C6.29365 6.6665 6.66675 7.0396 6.66675 7.49984C6.66675 7.96007 6.29365 8.33317 5.83342 8.33317H3.75008C3.63957 8.33317 3.53359 8.37707 3.45545 8.45521C3.37731 8.53335 3.33341 8.63933 3.33341 8.74984C3.33341 8.86034 3.37731 8.96633 3.45545 9.04447C3.53359 9.12261 3.63957 9.1665 3.75008 9.1665H4.58341C5.13595 9.1665 5.66585 9.386 6.05655 9.7767C6.44726 10.1674 6.66675 10.6973 6.66675 11.2498C6.66675 11.8024 6.44726 12.3323 6.05655 12.723C5.76556 13.014 5.39735 13.21 5.00008 13.2911V13.3332C5.00008 13.7934 4.62699 14.1665 4.16675 14.1665C3.70651 14.1665 3.33341 13.7934 3.33341 13.3332H2.50008C2.03984 13.3332 1.66675 12.9601 1.66675 12.4998C1.66675 12.0396 2.03984 11.6665 2.50008 11.6665H4.58341C4.69392 11.6665 4.7999 11.6226 4.87804 11.5445C4.95618 11.4663 5.00008 11.3603 5.00008 11.2498C5.00008 11.1393 4.95618 11.0333 4.87804 10.9552C4.7999 10.8771 4.69392 10.8332 4.58341 10.8332H3.75008C3.19755 10.8332 2.66764 10.6137 2.27694 10.223C1.88624 9.83228 1.66675 9.30237 1.66675 8.74984C1.66675 8.1973 1.88624 7.6674 2.27694 7.2767C2.56794 6.98571 2.93615 6.78969 3.33341 6.70859V6.6665C3.33341 6.20627 3.70651 5.83317 4.16675 5.83317Z" fill="white"/>
</svg>
