<svg width="20" height="21" viewBox="0 0 20 21" fill="none" xmlns="http://www.w3.org/2000/svg">
<path d="M17.5 8.83366H2.5M13.3333 2.16699V5.50033M6.66667 2.16699V5.50033M7.5 13.8337L9.16667 15.5003L12.9167 11.7503M6.5 18.8337H13.5C14.9001 18.8337 15.6002 18.8337 16.135 18.5612C16.6054 18.3215 16.9878 17.939 17.2275 17.4686C17.5 16.9339 17.5 16.2338 17.5 14.8337V7.83366C17.5 6.43353 17.5 5.73346 17.2275 5.19868C16.9878 4.72828 16.6054 4.34583 16.135 4.10614C15.6002 3.83366 14.9001 3.83366 13.5 3.83366H6.5C5.09987 3.83366 4.3998 3.83366 3.86502 4.10614C3.39462 4.34583 3.01217 4.72828 2.77248 5.19868C2.5 5.73346 2.5 6.43353 2.5 7.83366V14.8337C2.5 16.2338 2.5 16.9339 2.77248 17.4686C3.01217 17.939 3.39462 18.3215 3.86502 18.5612C4.3998 18.8337 5.09987 18.8337 6.5 18.8337Z" stroke="#384250" stroke-width="1.5" stroke-linecap="round" stroke-linejoin="round"/>
</svg>
