<svg width="20" height="21" viewBox="0 0 20 21" fill="none" xmlns="http://www.w3.org/2000/svg">
<path d="M17.0833 6.8514L9.99997 10.7866M9.99997 10.7866L2.91664 6.8514M9.99997 10.7866L10 18.7033M17.5 14.1687V7.40448C17.5 7.11895 17.5 6.97618 17.4579 6.84885C17.4207 6.7362 17.3599 6.6328 17.2795 6.54556C17.1886 6.44694 17.0638 6.37761 16.8142 6.23894L10.6475 2.81301C10.4112 2.68171 10.293 2.61606 10.1679 2.59033C10.0571 2.56755 9.94288 2.56755 9.83213 2.59033C9.70698 2.61606 9.58881 2.68171 9.35248 2.81301L3.18581 6.23894C2.93621 6.37761 2.8114 6.44694 2.72053 6.54556C2.64013 6.6328 2.57929 6.7362 2.54207 6.84885C2.5 6.97618 2.5 7.11895 2.5 7.40448V14.1687C2.5 14.4543 2.5 14.597 2.54207 14.7244C2.57929 14.837 2.64013 14.9404 2.72053 15.0277C2.8114 15.1263 2.93621 15.1956 3.18581 15.3343L9.35248 18.7602C9.58881 18.8915 9.70698 18.9572 9.83213 18.9829C9.94288 19.0057 10.0571 19.0057 10.1679 18.9829C10.293 18.9572 10.4112 18.8915 10.6475 18.7602L16.8142 15.3343C17.0638 15.1956 17.1886 15.1263 17.2795 15.0277C17.3599 14.9404 17.4207 14.837 17.4579 14.7244C17.5 14.597 17.5 14.4543 17.5 14.1687Z" stroke="#51566C" stroke-linecap="round" stroke-linejoin="round"/>
</svg>
