<svg width="17" height="15" viewBox="0 0 17 15" fill="none" xmlns="http://www.w3.org/2000/svg">
<path d="M8.5289 8.03199C8.89584 8.03199 9.1933 7.76071 9.1933 7.42606C9.1933 7.09141 8.89584 6.82013 8.5289 6.82013C8.16196 6.82013 7.8645 7.09141 7.8645 7.42606C7.8645 7.76071 8.16196 8.03199 8.5289 8.03199Z" stroke="#606162" stroke-width="2.0869" stroke-linecap="round" stroke-linejoin="round"/>
<path d="M8.5289 3.79047C8.89584 3.79047 9.1933 3.51919 9.1933 3.18454C9.1933 2.8499 8.89584 2.57861 8.5289 2.57861C8.16196 2.57861 7.8645 2.8499 7.8645 3.18454C7.8645 3.51919 8.16196 3.79047 8.5289 3.79047Z" stroke="#606162" stroke-width="2.0869" stroke-linecap="round" stroke-linejoin="round"/>
<path d="M8.5289 12.2735C8.89584 12.2735 9.1933 12.0022 9.1933 11.6676C9.1933 11.3329 8.89584 11.0616 8.5289 11.0616C8.16196 11.0616 7.8645 11.3329 7.8645 11.6676C7.8645 12.0022 8.16196 12.2735 8.5289 12.2735Z" stroke="#606162" stroke-width="2.0869" stroke-linecap="round" stroke-linejoin="round"/>
</svg>
