<svg width="16" height="23" viewBox="0 0 16 23" fill="none" xmlns="http://www.w3.org/2000/svg">
<g clip-path="url(#clip0_40000376_28423)">
<path d="M5.60007 11.5003C5.60007 10.9711 5.1822 10.542 4.66673 10.542C4.15127 10.542 3.7334 10.9711 3.7334 11.5003C3.7334 12.0296 4.15127 12.4587 4.66673 12.4587C5.1822 12.4587 5.60007 12.0296 5.60007 11.5003Z" stroke="#C4C4C4" stroke-width="1.3" stroke-linecap="round" stroke-linejoin="round"/>
<path d="M12.1334 11.5003C12.1334 10.9711 11.7155 10.542 11.2001 10.542C10.6846 10.542 10.2667 10.9711 10.2667 11.5003C10.2667 12.0296 10.6846 12.4587 11.2001 12.4587C11.7155 12.4587 12.1334 12.0296 12.1334 11.5003Z" stroke="#C4C4C4" stroke-width="1.3" stroke-linecap="round" stroke-linejoin="round"/>
<path d="M5.60007 4.79199C5.60007 4.26272 5.1822 3.83366 4.66673 3.83366C4.15127 3.83366 3.7334 4.26272 3.7334 4.79199C3.7334 5.32126 4.15127 5.75033 4.66673 5.75033C5.1822 5.75033 5.60007 5.32126 5.60007 4.79199Z" stroke="#C4C4C4" stroke-width="1.3" stroke-linecap="round" stroke-linejoin="round"/>
<path d="M12.1334 4.79199C12.1334 4.26272 11.7155 3.83366 11.2001 3.83366C10.6846 3.83366 10.2667 4.26272 10.2667 4.79199C10.2667 5.32126 10.6846 5.75033 11.2001 5.75033C11.7155 5.75033 12.1334 5.32126 12.1334 4.79199Z" stroke="#C4C4C4" stroke-width="1.3" stroke-linecap="round" stroke-linejoin="round"/>
<path d="M5.60007 18.2087C5.60007 17.6794 5.1822 17.2503 4.66673 17.2503C4.15127 17.2503 3.7334 17.6794 3.7334 18.2087C3.7334 18.7379 4.15127 19.167 4.66673 19.167C5.1822 19.167 5.60007 18.7379 5.60007 18.2087Z" stroke="#C4C4C4" stroke-width="1.3" stroke-linecap="round" stroke-linejoin="round"/>
<path d="M12.1334 18.2087C12.1334 17.6794 11.7155 17.2503 11.2001 17.2503C10.6846 17.2503 10.2667 17.6794 10.2667 18.2087C10.2667 18.7379 10.6846 19.167 11.2001 19.167C11.7155 19.167 12.1334 18.7379 12.1334 18.2087Z" stroke="#C4C4C4" stroke-width="1.3" stroke-linecap="round" stroke-linejoin="round"/>
</g>
<defs>
<clipPath id="clip0_40000376_28423">
<rect width="23" height="16" fill="white" transform="translate(0 23) rotate(-90)"/>
</clipPath>
</defs>
</svg>
