<svg width="14" height="15" viewBox="0 0 14 15" fill="none" xmlns="http://www.w3.org/2000/svg">
<g clip-path="url(#clip0_7130_12717)">
<path d="M6.41663 3.20924H3.96663C2.98653 3.20924 2.49649 3.20924 2.12214 3.39998C1.79286 3.56776 1.52514 3.83547 1.35736 4.16476C1.16663 4.5391 1.16663 5.02915 1.16663 6.00924V10.9092C1.16663 11.8893 1.16663 12.3794 1.35736 12.7537C1.52514 13.083 1.79286 13.3507 2.12214 13.5185C2.49649 13.7092 2.98653 13.7092 3.96663 13.7092H8.86663C9.84672 13.7092 10.3368 13.7092 10.7111 13.5185C11.0404 13.3507 11.3081 13.083 11.4759 12.7537C11.6666 12.3794 11.6666 11.8893 11.6666 10.9092V8.45924M4.66661 10.2092H5.64343C5.92878 10.2092 6.07146 10.2092 6.20573 10.177C6.32477 10.1484 6.43857 10.1013 6.54296 10.0373C6.66069 9.96517 6.76158 9.86428 6.96336 9.6625L12.5416 4.08424C13.0249 3.60099 13.0249 2.81749 12.5416 2.33424C12.0584 1.85099 11.2749 1.85099 10.7916 2.33424L5.21335 7.9125C5.01157 8.11428 4.91068 8.21517 4.83853 8.33291C4.77456 8.43729 4.72742 8.55109 4.69885 8.67014C4.66661 8.8044 4.66661 8.94708 4.66661 9.23244V10.2092Z" stroke="#384250" stroke-linecap="round" stroke-linejoin="round"/>
</g>
<defs>
<clipPath id="clip0_7130_12717">
<rect width="14" height="14" fill="white" transform="translate(0 0.875854)"/>
</clipPath>
</defs>
</svg>
