<svg width="20" height="20" viewBox="0 0 20 20" fill="none" xmlns="http://www.w3.org/2000/svg">
<g clip-path="url(#clip0_3889_22480)">
<path d="M9.16666 3.3332H5.66666C4.26653 3.3332 3.56646 3.3332 3.03168 3.60568C2.56128 3.84536 2.17882 4.22782 1.93914 4.69822C1.66666 5.233 1.66666 5.93307 1.66666 7.3332V14.3332C1.66666 15.7333 1.66666 16.4334 1.93914 16.9682C2.17882 17.4386 2.56128 17.821 3.03168 18.0607C3.56646 18.3332 4.26653 18.3332 5.66666 18.3332H12.6667C14.0668 18.3332 14.7669 18.3332 15.3016 18.0607C15.772 17.821 16.1545 17.4386 16.3942 16.9682C16.6667 16.4334 16.6667 15.7333 16.6667 14.3332V10.8332M6.66663 13.3332H8.06209C8.46974 13.3332 8.67356 13.3332 8.86538 13.2871C9.03544 13.2463 9.19801 13.179 9.34713 13.0876C9.51533 12.9845 9.65945 12.8404 9.9477 12.5521L17.9167 4.5832C18.607 3.89284 18.607 2.77355 17.9167 2.0832C17.2263 1.39284 16.107 1.39284 15.4167 2.0832L7.44769 10.0521C7.15943 10.3404 7.0153 10.4845 6.91223 10.6527C6.82085 10.8018 6.75351 10.9644 6.71268 11.1345C6.66663 11.3263 6.66663 11.5301 6.66663 11.9378V13.3332Z" stroke="white" stroke-width="1.67" stroke-linecap="round" stroke-linejoin="round"/>
</g>
<defs>
<clipPath id="clip0_3889_22480">
<rect width="20" height="20" fill="white"/>
</clipPath>
</defs>
</svg>
