<svg width="20" height="20" viewBox="0 0 20 20" fill="none" xmlns="http://www.w3.org/2000/svg">
<path fill-rule="evenodd" clip-rule="evenodd" d="M10.0001 3.33317C6.31818 3.33317 3.33341 6.31794 3.33341 9.99984C3.33341 13.6817 6.31818 16.6665 10.0001 16.6665C13.682 16.6665 16.6667 13.6817 16.6667 9.99984C16.6667 6.31794 13.682 3.33317 10.0001 3.33317ZM1.66675 9.99984C1.66675 5.39746 5.39771 1.6665 10.0001 1.6665C14.6025 1.6665 18.3334 5.39746 18.3334 9.99984C18.3334 14.6022 14.6025 18.3332 10.0001 18.3332C5.39771 18.3332 1.66675 14.6022 1.66675 9.99984ZM8.72905 5.28724C9.14521 5.08132 9.6035 4.97481 10.0678 4.9761C10.5322 4.97738 10.9899 5.08644 11.4049 5.29467C11.8199 5.5029 12.1809 5.80462 12.4595 6.17608C12.7381 6.54755 12.9267 6.97861 13.0104 7.43534C13.0941 7.89206 13.0706 8.36198 12.9418 8.80809C12.8131 9.25421 12.5825 9.66434 12.2683 10.0062C11.9541 10.3481 11.5648 10.6123 11.1311 10.7782C11.124 10.7809 11.117 10.7835 11.1099 10.786C11.0246 10.8159 10.9515 10.8728 10.9014 10.9479C10.8513 11.0231 10.827 11.1125 10.8321 11.2026C10.8581 11.6621 10.5068 12.0558 10.0473 12.0818C9.58777 12.1079 9.19415 11.7565 9.16809 11.297C9.14251 10.8461 9.26414 10.3992 9.51464 10.0234C9.76252 9.65159 10.1233 9.36943 10.5437 9.21841C10.7332 9.14453 10.9034 9.02822 11.0412 8.87836C11.1808 8.72642 11.2833 8.54414 11.3405 8.34587C11.3978 8.14759 11.4082 7.93874 11.371 7.73575C11.3338 7.53276 11.25 7.34118 11.1262 7.17608C11.0024 7.01099 10.8419 6.87689 10.6574 6.78434C10.473 6.6918 10.2696 6.64333 10.0632 6.64276C9.85684 6.64218 9.65316 6.68952 9.46819 6.78104C9.28323 6.87257 9.12203 7.00577 8.9973 7.17018C8.71912 7.53683 8.19638 7.60855 7.82972 7.33037C7.46307 7.05219 7.39135 6.52945 7.66953 6.1628C7.95019 5.79289 8.31288 5.49317 8.72905 5.28724ZM10.0001 13.3332C10.4603 13.3332 10.8334 13.7063 10.8334 14.1665V14.1748C10.8334 14.6351 10.4603 15.0082 10.0001 15.0082C9.53984 15.0082 9.16675 14.6351 9.16675 14.1748V14.1665C9.16675 13.7063 9.53984 13.3332 10.0001 13.3332Z" fill="white"/>
</svg>
