<svg width="17" height="18" viewBox="0 0 17 18" fill="none" xmlns="http://www.w3.org/2000/svg">
<path d="M5.70837 10.9998C5.70837 11.9663 6.49188 12.7498 7.45837 12.7498H9.08337C10.1189 12.7498 10.9584 11.9103 10.9584 10.8748C10.9584 9.83922 10.1189 8.99976 9.08337 8.99976H7.58337C6.54784 8.99976 5.70837 8.16029 5.70837 7.12476C5.70837 6.08922 6.54784 5.24976 7.58337 5.24976H9.20837C10.1749 5.24976 10.9584 6.03326 10.9584 6.99976M8.33337 4.12476V5.24976M8.33337 12.7498V13.8748M15.8334 8.99976C15.8334 13.1419 12.4755 16.4998 8.33337 16.4998C4.19124 16.4998 0.833374 13.1419 0.833374 8.99976C0.833374 4.85762 4.19124 1.49976 8.33337 1.49976C12.4755 1.49976 15.8334 4.85762 15.8334 8.99976Z" stroke="#222222" stroke-width="1.5" stroke-linecap="round" stroke-linejoin="round"/>
</svg>
