<svg width="14" height="14" viewBox="0 0 14 14" fill="none" xmlns="http://www.w3.org/2000/svg">
<path fill-rule="evenodd" clip-rule="evenodd" d="M5.00065 1.66634C3.89608 1.66634 3.00065 2.56177 3.00065 3.66634C3.00065 4.77091 3.89608 5.66634 5.00065 5.66634C6.10522 5.66634 7.00065 4.77091 7.00065 3.66634C7.00065 2.56177 6.10522 1.66634 5.00065 1.66634ZM1.66732 3.66634C1.66732 1.82539 3.1597 0.333008 5.00065 0.333008C6.8416 0.333008 8.33398 1.82539 8.33398 3.66634C8.33398 5.50729 6.8416 6.99967 5.00065 6.99967C3.1597 6.99967 1.66732 5.50729 1.66732 3.66634ZM9.02148 0.920985C9.11281 0.564301 9.47599 0.349186 9.83268 0.440511C10.5497 0.624095 11.1852 1.0411 11.639 1.62577C12.0929 2.21044 12.3392 2.92954 12.3392 3.66968C12.3392 4.40982 12.0929 5.12891 11.639 5.71359C11.1852 6.29826 10.5497 6.71526 9.83268 6.89884C9.47599 6.99017 9.11281 6.77505 9.02148 6.41837C8.93016 6.06169 9.14528 5.6985 9.50196 5.60718C9.93217 5.49703 10.3135 5.24683 10.5858 4.89602C10.8581 4.54522 11.0059 4.11376 11.0059 3.66968C11.0059 3.22559 10.8581 2.79414 10.5858 2.44333C10.3135 2.09253 9.93217 1.84233 9.50196 1.73218C9.14528 1.64085 8.93016 1.27767 9.02148 0.920985ZM3.66732 9.66634C3.13689 9.66634 2.62818 9.87706 2.2531 10.2521C1.87803 10.6272 1.66732 11.1359 1.66732 11.6663V12.9997C1.66732 13.3679 1.36884 13.6663 1.00065 13.6663C0.632461 13.6663 0.333984 13.3679 0.333984 12.9997V11.6663C0.333984 10.7823 0.685174 9.93444 1.31029 9.30932C1.93542 8.6842 2.78326 8.33301 3.66732 8.33301H6.33398C7.21804 8.33301 8.06589 8.6842 8.69101 9.30932C9.31613 9.93444 9.66732 10.7823 9.66732 11.6663V12.9997C9.66732 13.3679 9.36884 13.6663 9.00065 13.6663C8.63246 13.6663 8.33398 13.3679 8.33398 12.9997V11.6663C8.33398 11.1359 8.12327 10.6272 7.7482 10.2521C7.37313 9.87706 6.86442 9.66634 6.33398 9.66634H3.66732ZM10.3552 8.93303C10.4472 8.57654 10.8108 8.36215 11.1673 8.45419C11.8797 8.63811 12.5112 9.05253 12.9634 9.63286C13.4156 10.2132 13.6631 10.9268 13.6673 11.6625L13.6673 11.6664L13.6673 12.9997C13.6673 13.3679 13.3688 13.6664 13.0007 13.6664C12.6325 13.6664 12.334 13.3679 12.334 12.9997V11.6683C12.331 11.2276 12.1826 10.8001 11.9116 10.4524C11.6403 10.1042 11.2614 9.85554 10.834 9.74519C10.4775 9.65315 10.2631 9.28954 10.3552 8.93303Z" fill="#3A4856"/>
</svg>
