<svg width="20" height="22" viewBox="0 0 20 22" fill="none" xmlns="http://www.w3.org/2000/svg">
<path fill-rule="evenodd" clip-rule="evenodd" d="M9.2926 2.29335C10.2758 1.31016 11.6093 0.757812 12.9997 0.757812C14.3901 0.757812 15.7236 1.31016 16.7068 2.29335C17.69 3.27653 18.2423 4.61002 18.2423 6.00045C18.2423 7.39089 17.69 8.72437 16.7068 9.70756L10.2068 16.2076C9.62145 16.7929 8.82753 17.1218 7.9997 17.1218C7.17188 17.1218 6.37796 16.7929 5.7926 16.2076C5.20724 15.6222 4.87838 14.8283 4.87838 14.0005C4.87838 13.1726 5.20724 12.3787 5.7926 11.7933L12.2926 5.29335C12.6831 4.90282 13.3163 4.90282 13.7068 5.29335C14.0973 5.68387 14.0973 6.31704 13.7068 6.70756L7.20681 13.2076C6.99652 13.4178 6.87838 13.7031 6.87838 14.0005C6.87838 14.2978 6.99652 14.5831 7.20681 14.7933C7.4171 15.0036 7.70231 15.1218 7.9997 15.1218C8.2971 15.1218 8.58231 15.0036 8.7926 14.7933L15.2926 8.29335C15.9007 7.68523 16.2423 6.86045 16.2423 6.00045C16.2423 5.14045 15.9007 4.31567 15.2926 3.70756C14.6845 3.09945 13.8597 2.75781 12.9997 2.75781C12.1397 2.75781 11.3149 3.09945 10.7068 3.70756L4.20681 10.2076C3.20087 11.2135 2.63574 12.5778 2.63574 14.0005C2.63574 15.4231 3.20087 16.7874 4.20681 17.7933C5.21275 18.7993 6.57709 19.3644 7.9997 19.3644C9.42231 19.3644 10.7867 18.7993 11.7926 17.7933L18.2926 11.2933C18.6831 10.9028 19.3163 10.9028 19.7068 11.2933C20.0973 11.6839 20.0973 12.317 19.7068 12.7076L13.2068 19.2076C11.8258 20.5886 9.95275 21.3644 7.9997 21.3644C6.04666 21.3644 4.17361 20.5886 2.7926 19.2076C1.41159 17.8265 0.635742 15.9535 0.635742 14.0005C0.635742 12.0474 1.41159 10.1744 2.7926 8.79335L9.2926 2.29335Z" fill="#858688"/>
</svg>
