<svg width="17" height="16" viewBox="0 0 17 16" fill="none" xmlns="http://www.w3.org/2000/svg">
<path d="M8.48237 2.36329C8.63675 2.06212 8.71393 1.91154 8.81871 1.86343C8.90988 1.82157 9.0158 1.82157 9.10697 1.86343C9.21175 1.91154 9.28893 2.06212 9.44331 2.36329L10.9079 5.22055C10.9534 5.30946 10.9762 5.35392 11.0095 5.38843C11.039 5.41899 11.0744 5.44376 11.1137 5.46135C11.158 5.48121 11.209 5.48838 11.3108 5.50272L14.5868 5.96384C14.9318 6.0124 15.1043 6.03668 15.1841 6.11782C15.2536 6.18842 15.2862 6.28542 15.273 6.38184C15.2578 6.49265 15.1329 6.60978 14.8832 6.84404L12.5135 9.06667C12.4397 9.13596 12.4027 9.1706 12.3789 9.21182C12.3578 9.24832 12.3443 9.28842 12.3391 9.32988C12.3332 9.37672 12.3419 9.42566 12.3593 9.52353L12.9184 12.6629C12.9774 12.994 13.0069 13.1596 12.9515 13.2578C12.9033 13.3433 12.8176 13.4033 12.7182 13.421C12.6041 13.4414 12.4497 13.3632 12.1409 13.2068L9.21223 11.7236C9.12098 11.6774 9.07536 11.6543 9.02729 11.6452C8.98473 11.6372 8.94095 11.6372 8.89839 11.6452C8.85032 11.6543 8.8047 11.6774 8.71345 11.7236L5.78475 13.2068C5.47598 13.3632 5.3216 13.4414 5.20744 13.421C5.10812 13.4033 5.02242 13.3433 4.97421 13.2578C4.91879 13.1596 4.94828 12.994 5.00725 12.6629L5.56638 9.52353C5.58381 9.42566 5.59253 9.37672 5.58663 9.32988C5.58141 9.28842 5.56787 9.24832 5.54677 9.21182C5.52294 9.1706 5.486 9.13596 5.41213 9.06667L3.04249 6.84404C2.79274 6.60978 2.66786 6.49265 2.65267 6.38184C2.63944 6.28542 2.67211 6.18842 2.74156 6.11782C2.82138 6.03668 2.99387 6.0124 3.33885 5.96384L6.61484 5.50272C6.71672 5.48838 6.76766 5.48121 6.81203 5.46135C6.85131 5.44376 6.88667 5.41899 6.91615 5.38843C6.94946 5.35392 6.97224 5.30946 7.01782 5.22055L8.48237 2.36329Z" stroke="#606162" stroke-linecap="round" stroke-linejoin="round"/>
</svg>
