<svg width="13" height="13" viewBox="0 0 13 13" fill="none" xmlns="http://www.w3.org/2000/svg">
<path d="M6.13111 0.866621C6.25085 0.498097 6.77222 0.498097 6.89196 0.866621L8.10242 4.59204C8.15597 4.75685 8.30955 4.86843 8.48284 4.86843H12.4C12.7875 4.86843 12.9486 5.36428 12.6351 5.59204L9.46606 7.89447C9.32587 7.99633 9.2672 8.17688 9.32075 8.34169L10.5312 12.0671C10.651 12.4356 10.2292 12.7421 9.91568 12.5143L6.74665 10.2119C6.60645 10.11 6.41662 10.11 6.27642 10.2119L3.10739 12.5143C2.79391 12.7421 2.37212 12.4356 2.49186 12.0671L3.70232 8.34169C3.75587 8.17688 3.6972 7.99633 3.55701 7.89447L0.38798 5.59204C0.0744942 5.36428 0.235605 4.86843 0.623094 4.86843H4.54023C4.71352 4.86843 4.8671 4.75685 4.92065 4.59204L6.13111 0.866621Z" fill="#FF9500"/>
</svg>
