<svg width="20" height="21" viewBox="0 0 20 21" fill="none" xmlns="http://www.w3.org/2000/svg">
<path d="M17.5 9.66699L11.1716 3.33856C10.7392 2.90619 10.523 2.69 10.2707 2.53539C10.047 2.39832 9.80317 2.29731 9.54808 2.23607C9.26036 2.16699 8.95462 2.16699 8.34314 2.16699L5 2.16699M2.5 7.75033L2.5 9.39576C2.5 9.80341 2.5 10.0072 2.54605 10.199C2.58688 10.3691 2.65422 10.5317 2.7456 10.6808C2.84867 10.849 2.9928 10.9931 3.28105 11.2814L9.78105 17.7814C10.4411 18.4414 10.7711 18.7714 11.1516 18.8951C11.4864 19.0038 11.847 19.0038 12.1817 18.8951C12.5622 18.7714 12.8923 18.4414 13.5523 17.7814L15.6144 15.7193C16.2744 15.0592 16.6044 14.7292 16.7281 14.3487C16.8368 14.0139 16.8368 13.6534 16.7281 13.3186C16.6044 12.9381 16.2744 12.6081 15.6144 11.948L9.53105 5.86471C9.2428 5.57645 9.09867 5.43233 8.93048 5.32926C8.78135 5.23788 8.61878 5.17054 8.44872 5.12971C8.25691 5.08366 8.05308 5.08366 7.64543 5.08366H5.16667C4.23325 5.08366 3.76654 5.08366 3.41002 5.26531C3.09641 5.4251 2.84145 5.68007 2.68166 5.99367C2.5 6.35019 2.5 6.8169 2.5 7.75033Z" stroke="#222222" stroke-width="1.5" stroke-linecap="round" stroke-linejoin="round"/>
</svg>
