<svg width="16" height="18" viewBox="0 0 16 18" fill="none" xmlns="http://www.w3.org/2000/svg">
<path fill-rule="evenodd" clip-rule="evenodd" d="M5.15482 1.15515C5.46738 0.842587 5.89131 0.666992 6.33333 0.666992H9.66667C10.1087 0.666992 10.5326 0.842587 10.8452 1.15515C11.1577 1.46771 11.3333 1.89163 11.3333 2.33366V4.00033H13.8236C13.8295 4.00026 13.8353 4.00026 13.8412 4.00033H14.6667C15.1269 4.00033 15.5 4.37342 15.5 4.83366C15.5 5.2939 15.1269 5.66699 14.6667 5.66699H14.6001L13.833 14.8718C13.8231 15.5211 13.5609 16.1416 13.1011 16.6014C12.6323 17.0703 11.9964 17.3337 11.3333 17.3337H4.66667C4.00362 17.3337 3.36774 17.0703 2.8989 16.6014C2.43906 16.1416 2.17685 15.5211 2.16696 14.8718L1.39989 5.66699H1.33333C0.873096 5.66699 0.5 5.2939 0.5 4.83366C0.5 4.37342 0.873096 4.00033 1.33333 4.00033H2.15878C2.16467 4.00026 2.17055 4.00026 2.17641 4.00033H4.66667V2.33366C4.66667 1.89163 4.84226 1.46771 5.15482 1.15515ZM3.07233 5.66699L3.83045 14.7645C3.83237 14.7875 3.83333 14.8106 3.83333 14.8337C3.83333 15.0547 3.92113 15.2666 4.07741 15.4229C4.23369 15.5792 4.44565 15.667 4.66667 15.667H11.3333C11.5543 15.667 11.7663 15.5792 11.9226 15.4229C12.0789 15.2666 12.1667 15.0547 12.1667 14.8337C12.1667 14.8106 12.1676 14.7875 12.1695 14.7645L12.9277 5.66699H3.07233ZM9.66667 4.00033H6.33333V2.33366H9.66667V4.00033ZM6.33333 7.33366C6.79357 7.33366 7.16667 7.70676 7.16667 8.16699V13.167C7.16667 13.6272 6.79357 14.0003 6.33333 14.0003C5.8731 14.0003 5.5 13.6272 5.5 13.167V8.16699C5.5 7.70676 5.8731 7.33366 6.33333 7.33366ZM9.66667 7.33366C10.1269 7.33366 10.5 7.70676 10.5 8.16699V13.167C10.5 13.6272 10.1269 14.0003 9.66667 14.0003C9.20643 14.0003 8.83333 13.6272 8.83333 13.167V8.16699C8.83333 7.70676 9.20643 7.33366 9.66667 7.33366Z" fill="white"/>
</svg>
