<svg width="14" height="15" viewBox="0 0 14 15" fill="none" xmlns="http://www.w3.org/2000/svg">
<path fill-rule="evenodd" clip-rule="evenodd" d="M5.00838 2.38419C5.22717 2.1654 5.52391 2.04248 5.83333 2.04248H8.16667C8.47609 2.04248 8.77283 2.1654 8.99162 2.38419C9.21042 2.60298 9.33333 2.89973 9.33333 3.20915V4.37581H11.0765C11.0806 4.37577 11.0847 4.37577 11.0889 4.37581H11.6667C11.9888 4.37581 12.25 4.63698 12.25 4.95915C12.25 5.28131 11.9888 5.54248 11.6667 5.54248H11.6201L11.0831 11.9859C11.0762 12.4403 10.8927 12.8747 10.5708 13.1966C10.2426 13.5248 9.79746 13.7091 9.33333 13.7091H4.66667C4.20254 13.7091 3.75742 13.5248 3.42923 13.1966C3.10734 12.8747 2.9238 12.4403 2.91687 11.9859L2.37992 5.54248H2.33333C2.01117 5.54248 1.75 5.28131 1.75 4.95915C1.75 4.63698 2.01117 4.37581 2.33333 4.37581H2.91115C2.91527 4.37577 2.91938 4.37577 2.92349 4.37581H4.66667V3.20915C4.66667 2.89973 4.78958 2.60298 5.00838 2.38419ZM3.55063 5.54248L4.08132 11.9107C4.08266 11.9268 4.08333 11.943 4.08333 11.9591C4.08333 12.1139 4.14479 12.2622 4.25419 12.3716C4.36358 12.481 4.51196 12.5425 4.66667 12.5425H9.33333C9.48804 12.5425 9.63642 12.481 9.74581 12.3716C9.85521 12.2622 9.91667 12.1139 9.91667 11.9591C9.91667 11.943 9.91734 11.9268 9.91868 11.9107L10.4494 5.54248H3.55063ZM8.16667 4.37581H5.83333V3.20915H8.16667V4.37581ZM5.83333 6.70915C6.1555 6.70915 6.41667 6.97031 6.41667 7.29248V10.7925C6.41667 11.1146 6.1555 11.3758 5.83333 11.3758C5.51117 11.3758 5.25 11.1146 5.25 10.7925V7.29248C5.25 6.97031 5.51117 6.70915 5.83333 6.70915ZM8.16667 6.70915C8.48883 6.70915 8.75 6.97031 8.75 7.29248V10.7925C8.75 11.1146 8.48883 11.3758 8.16667 11.3758C7.8445 11.3758 7.58333 11.1146 7.58333 10.7925V7.29248C7.58333 6.97031 7.8445 6.70915 8.16667 6.70915Z" fill="#3A4856"/>
</svg>
