<svg width="37" height="38" viewBox="0 0 37 38" fill="none" xmlns="http://www.w3.org/2000/svg">
<g clip-path="url(#clip0_7130_12091)">
<path d="M31.3842 23.7574C32.8815 22.9411 34.0644 21.6495 34.746 20.0863C35.4277 18.5231 35.5694 16.7774 35.1488 15.1248C34.7281 13.4721 33.7691 12.0066 32.423 10.9595C31.077 9.91243 29.4206 9.34342 27.7152 9.3423H25.7809C25.3162 7.545 24.4502 5.87643 23.2478 4.46202C22.0455 3.04762 20.5381 1.92419 18.8391 1.1762C17.1401 0.428204 15.2936 0.0751093 13.4384 0.14346C11.5833 0.211811 9.76781 0.699828 8.12843 1.57082C6.48905 2.44182 5.06845 3.67312 3.97344 5.17217C2.87843 6.67122 2.1375 8.399 1.80635 10.2256C1.4752 12.0522 1.56246 13.9302 2.06155 15.7182C2.56064 17.5062 3.45858 19.1579 4.68787 20.5489" stroke="#999999" stroke-width="2" stroke-linecap="round" stroke-linejoin="round"/>
<path d="M18.4977 23.7574V37.5739" stroke="#999999" stroke-width="2" stroke-linecap="round" stroke-linejoin="round"/>
<path d="M24.6406 27.1727L18.5 18.8518L12.3594 27.1727" stroke="#999999" stroke-width="2" stroke-linecap="round" stroke-linejoin="round"/>
<path d="M24.6406 27.1727L18.5 18.8518L12.3594 27.1727" stroke="#999999" stroke-width="2" stroke-linecap="round" stroke-linejoin="round"/>
</g>
<defs>
<clipPath id="clip0_7130_12091">
<rect width="36.8438" height="36.8438" fill="white" transform="translate(0.078125 0.430664)"/>
</clipPath>
</defs>
</svg>
